<svg width="960" height="680" viewBox="0 0 960 680" fill="none" xmlns="http://www.w3.org/2000/svg"><rect width="960" height="680" rx="40" fill="#F8FAFC"/><rect x="108" y="88" width="744" height="504" rx="32" fill="white" stroke="#E2E8F0" stroke-width="2"/><rect x="144" y="124" width="192" height="24" rx="12" fill="#111827"/><rect x="144" y="168" width="280" height="120" rx="24" fill="#EEF2FF"/><rect x="168" y="194" width="144" height="14" rx="7" fill="#4338CA"/><rect x="168" y="222" width="112" height="12" rx="6" fill="#6366F1"/><rect x="168" y="248" width="92" height="12" rx="6" fill="#A5B4FC"/><rect x="468" y="168" width="324" height="120" rx="24" fill="#F8FAFC"/><rect x="492" y="194" width="124" height="14" rx="7" fill="#0F172A"/><rect x="492" y="222" width="204" height="12" rx="6" fill="#94A3B8"/><rect x="492" y="248" width="168" height="12" rx="6" fill="#CBD5E1"/><rect x="144" y="318" width="648" height="214" rx="28" fill="#0F172A"/><rect x="174" y="348" width="164" height="14" rx="7" fill="#E2E8F0"/><rect x="174" y="382" width="492" height="16" rx="8" fill="#1D4ED8"/><rect x="174" y="410" width="420" height="12" rx="6" fill="#334155"/><rect x="174" y="440" width="462" height="12" rx="6" fill="#334155"/><rect x="174" y="470" width="380" height="12" rx="6" fill="#334155"/></svg>