<svg width="640" height="480" viewBox="0 0 640 480" fill="none" xmlns="http://www.w3.org/2000/svg"><rect width="640" height="480" rx="32" fill="#FFFBEB"/><rect x="52" y="52" width="536" height="376" rx="28" fill="white" stroke="#FDE68A" stroke-width="2"/><path d="M110 342C156 256 192 222 246 218C300 214 330 254 382 264C434 274 492 240 530 176" stroke="#2563EB" stroke-width="18" stroke-linecap="round" stroke-linejoin="round"/><circle cx="110" cy="342" r="18" fill="#2563EB"/><circle cx="246" cy="218" r="18" fill="#F59E0B"/><circle cx="382" cy="264" r="18" fill="#10B981"/><circle cx="530" cy="176" r="18" fill="#EF4444"/><rect x="108" y="92" width="186" height="24" rx="12" fill="#111827"/><rect x="108" y="132" width="252" height="14" rx="7" fill="#9CA3AF"/><rect x="108" y="168" width="404" height="16" rx="8" fill="#FDE68A"/><rect x="108" y="194" width="320" height="16" rx="8" fill="#E5E7EB"/><rect x="108" y="220" width="364" height="16" rx="8" fill="#E5E7EB"/><rect x="108" y="246" width="276" height="16" rx="8" fill="#E5E7EB"/></svg>