<svg width="640" height="480" viewBox="0 0 640 480" fill="none" xmlns="http://www.w3.org/2000/svg"><rect width="640" height="480" rx="32" fill="#ECFEFF"/><rect x="48" y="52" width="544" height="376" rx="28" fill="white" stroke="#CFFAFE" stroke-width="2"/><rect x="96" y="88" width="164" height="24" rx="12" fill="#0F172A"/><rect x="96" y="136" width="112" height="112" rx="24" fill="#E0F2FE"/><rect x="120" y="160" width="64" height="64" rx="20" fill="#0284C7"/><rect x="96" y="272" width="126" height="16" rx="8" fill="#334155"/><rect x="96" y="298" width="98" height="12" rx="6" fill="#94A3B8"/><rect x="292" y="136" width="252" height="112" rx="24" fill="#F8FAFC"/><rect x="316" y="160" width="92" height="14" rx="7" fill="#0F172A"/><rect x="316" y="186" width="152" height="12" rx="6" fill="#94A3B8"/><rect x="316" y="214" width="118" height="12" rx="6" fill="#CBD5E1"/><rect x="96" y="324" width="448" height="72" rx="20" fill="#111827"/><rect x="120" y="346" width="216" height="14" rx="7" fill="#F8FAFC"/><rect x="120" y="368" width="160" height="10" rx="5" fill="#CBD5E1"/></svg>