<svg width="640" height="480" viewBox="0 0 640 480" fill="none" xmlns="http://www.w3.org/2000/svg"><rect width="640" height="480" rx="32" fill="#FDF2F8"/><rect x="52" y="52" width="536" height="376" rx="28" fill="white" stroke="#FBCFE8" stroke-width="2"/><rect x="96" y="92" width="208" height="24" rx="12" fill="#111827"/><rect x="96" y="138" width="188" height="160" rx="28" fill="#FCE7F3"/><rect x="126" y="170" width="124" height="12" rx="6" fill="#9D174D"/><rect x="126" y="194" width="94" height="12" rx="6" fill="#DB2777"/><rect x="126" y="218" width="144" height="12" rx="6" fill="#F9A8D4"/><rect x="126" y="242" width="82" height="12" rx="6" fill="#FDA4AF"/><rect x="316" y="138" width="192" height="72" rx="24" fill="#FFF1F2"/><circle cx="352" cy="174" r="18" fill="#E11D48"/><rect x="384" y="162" width="96" height="14" rx="7" fill="#0F172A"/><rect x="316" y="226" width="192" height="72" rx="24" fill="#EFF6FF"/><circle cx="352" cy="262" r="18" fill="#2563EB"/><rect x="384" y="250" width="96" height="14" rx="7" fill="#0F172A"/><rect x="96" y="330" width="412" height="48" rx="16" fill="#111827"/></svg>