<svg width="640" height="480" viewBox="0 0 640 480" fill="none" xmlns="http://www.w3.org/2000/svg"><rect width="640" height="480" rx="32" fill="#F8FAFC"/><rect x="56" y="56" width="528" height="368" rx="28" fill="white" stroke="#E2E8F0" stroke-width="2"/><rect x="88" y="88" width="208" height="24" rx="12" fill="#0F172A"/><rect x="88" y="128" width="160" height="14" rx="7" fill="#94A3B8"/><rect x="88" y="168" width="188" height="112" rx="24" fill="#EEF2FF"/><rect x="112" y="192" width="140" height="16" rx="8" fill="#4338CA"/><rect x="112" y="222" width="112" height="12" rx="6" fill="#6366F1"/><rect x="112" y="244" width="96" height="12" rx="6" fill="#A5B4FC"/><rect x="312" y="168" width="184" height="112" rx="24" fill="#F1F5F9"/><rect x="336" y="194" width="102" height="14" rx="7" fill="#334155"/><rect x="336" y="222" width="124" height="12" rx="6" fill="#94A3B8"/><rect x="336" y="244" width="88" height="12" rx="6" fill="#CBD5E1"/><rect x="88" y="304" width="408" height="92" rx="24" fill="#0F172A"/><circle cx="132" cy="350" r="20" fill="#E2E8F0"/><rect x="172" y="332" width="176" height="14" rx="7" fill="#F8FAFC"/><rect x="172" y="356" width="132" height="12" rx="6" fill="#CBD5E1"/><rect x="430" y="326" width="44" height="44" rx="14" fill="#22C55E"/></svg>