<svg width="960" height="720" viewBox="0 0 960 720" fill="none" xmlns="http://www.w3.org/2000/svg" role="img" aria-labelledby="title desc">
  <title id="title">Accessible jobs illustration</title>
  <desc id="desc">A static illustration of an accessible job search workspace with cards, filters, and profiles.</desc>
  <rect width="960" height="720" rx="40" fill="#F8FAFC"/>
  <circle cx="775" cy="160" r="98" fill="#DBEAFE"/>
  <circle cx="170" cy="590" r="120" fill="#EDE9FE"/>
  <rect x="115" y="110" width="730" height="500" rx="28" fill="white" stroke="#E2E8F0" stroke-width="2"/>
  <rect x="154" y="150" width="330" height="56" rx="18" fill="#F1F5F9"/>
  <circle cx="188" cy="178" r="10" fill="#94A3B8"/>
  <rect x="214" y="168" width="172" height="20" rx="10" fill="#CBD5E1"/>
  <rect x="514" y="150" width="292" height="56" rx="18" fill="#111827"/>
  <rect x="536" y="167" width="106" height="18" rx="9" fill="#FFFFFF" opacity="0.95"/>
  <rect x="664" y="167" width="116" height="18" rx="9" fill="#FFFFFF" opacity="0.55"/>
  <rect x="154" y="230" width="190" height="340" rx="22" fill="#F8FAFC" stroke="#E2E8F0" stroke-width="2"/>
  <rect x="176" y="256" width="82" height="14" rx="7" fill="#CBD5E1"/>
  <rect x="176" y="288" width="144" height="18" rx="9" fill="#94A3B8"/>
  <rect x="176" y="326" width="146" height="14" rx="7" fill="#E2E8F0"/>
  <rect x="176" y="360" width="124" height="14" rx="7" fill="#E2E8F0"/>
  <rect x="176" y="394" width="136" height="14" rx="7" fill="#E2E8F0"/>
  <rect x="176" y="428" width="108" height="14" rx="7" fill="#E2E8F0"/>
  <rect x="176" y="476" width="144" height="48" rx="16" fill="#111827"/>
  <rect x="426" y="230" width="362" height="152" rx="24" fill="#F8FAFC" stroke="#E2E8F0" stroke-width="2"/>
  <rect x="450" y="256" width="126" height="16" rx="8" fill="#94A3B8"/>
  <rect x="450" y="286" width="246" height="18" rx="9" fill="#111827"/>
  <rect x="450" y="322" width="196" height="14" rx="7" fill="#CBD5E1"/>
  <rect x="450" y="348" width="144" height="14" rx="7" fill="#E2E8F0"/>
  <rect x="426" y="402" width="362" height="168" rx="24" fill="#EEF2FF" stroke="#C7D2FE" stroke-width="2"/>
  <rect x="450" y="430" width="128" height="14" rx="7" fill="#4F46E5"/>
  <rect x="450" y="460" width="240" height="20" rx="10" fill="#111827"/>
  <rect x="450" y="498" width="184" height="14" rx="7" fill="#6366F1"/>
  <circle cx="716" cy="468" r="36" fill="#111827"/>
  <circle cx="716" cy="460" r="12" fill="#F8FAFC"/>
  <rect x="696" y="480" width="40" height="10" rx="5" fill="#F8FAFC"/>
  <rect x="514" y="530" width="106" height="28" rx="14" fill="white"/>
  <rect x="636" y="530" width="124" height="28" rx="14" fill="white"/>
</svg>
